<?xml version="1.0" standalone="no"?>
<!DOCTYPE svg PUBLIC "-//W3C//DTD SVG 20010904//EN"
 "http://www.w3.org/TR/2001/REC-SVG-20010904/DTD/svg10.dtd">
<svg version="1.0" xmlns="http://www.w3.org/2000/svg"
 width="950.000000pt" height="666.000000pt" viewBox="0 0 950.000000 666.000000"
 preserveAspectRatio="xMidYMid meet">

<g transform="translate(0.000000,666.000000) scale(0.100000,-0.100000)"
fill="#000000" stroke="none">
<path d="M7952 6405 c-140 -8 -255 -15 -256 -17 -1 -1 10 -424 25 -938 15
-514 28 -954 28 -977 l1 -43 205 0 205 0 -1 58 c0 31 -6 215 -13 407 -7 193
-12 351 -11 352 1 1 135 -202 299 -452 192 -293 304 -455 315 -455 24 0 543
88 547 93 3 2 -191 197 -431 432 -239 236 -433 430 -430 433 3 3 0 11 -5 17
-7 9 74 118 293 391 167 209 356 445 420 527 l117 147 -194 0 -194 0 -298
-382 c-242 -310 -299 -378 -305 -362 -4 10 -8 89 -8 175 -1 86 -4 258 -8 382
-6 222 -7 227 -27 226 -12 -1 -135 -7 -274 -14z"/>
<path d="M4642 6310 c-338 -21 -616 -41 -620 -44 -3 -4 -54 -436 -112 -960
l-106 -954 391 5 c214 3 390 6 391 7 0 0 -5 141 -12 311 -7 171 -11 311 -11
311 7 7 354 30 360 25 4 -4 26 -101 49 -217 22 -115 42 -210 43 -212 2 -2 648
49 652 52 0 0 -76 387 -170 859 l-172 857 -35 -1 c-19 -1 -311 -19 -648 -39z
m312 -517 c3 -32 10 -128 16 -213 6 -85 13 -181 16 -212 l6 -58 -296 0 -296 0
0 270 0 270 274 0 274 0 6 -57z"/>
<path d="M2528 5423 c-2 -505 -4 -919 -3 -920 0 -1 1149 65 1163 67 1 0 2 108
2 240 l0 239 -27 -5 c-16 -3 -164 -29 -330 -58 -282 -49 -302 -51 -306 -34 -4
15 105 1160 128 1341 l6 47 -315 0 -314 0 -4 -917z"/>
<path d="M1800 6264 c-25 -2 -193 -13 -375 -25 -333 -20 -1045 -76 -1050 -81
-3 -4 165 -1841 168 -1845 2 -1 281 -16 620 -33 669 -33 668 -33 816 16 85 28
140 64 212 136 65 65 87 115 101 228 12 100 2 192 -28 257 -45 96 -177 186
-349 239 -103 31 -105 32 -85 44 13 8 12 10 -2 10 -30 0 -20 17 14 24 59 12
237 94 295 137 138 102 200 205 224 376 43 310 -213 546 -561 517z m-50 -594
l0 -250 -143 0 c-79 0 -259 3 -400 7 l-257 6 0 238 0 238 143 4 c78 1 258 4
400 5 l257 2 0 -250z m-85 -694 c2 -4 -16 -440 -18 -441 -1 -1 -137 4 -302 11
-165 7 -319 13 -342 13 l-43 1 0 216 0 216 353 -7 c193 -4 352 -8 352 -9z"/>
<path d="M6495 6246 c-186 -27 -328 -87 -438 -184 -128 -113 -246 -306 -289
-472 -20 -74 -22 -110 -22 -280 1 -225 13 -289 85 -431 187 -374 482 -543 917
-526 149 5 214 19 332 70 102 44 182 99 260 177 112 112 184 246 197 369 l6
61 -274 0 -274 0 3 -115 4 -115 -345 0 -345 0 -6 23 c-3 12 -6 230 -6 484 l0
462 33 5 c67 10 648 38 655 31 4 -3 9 -56 10 -117 l4 -110 171 6 c95 3 214 9
266 12 l94 7 -6 59 c-10 114 -95 249 -225 359 -206 174 -532 265 -807 225z"/>
<path d="M6513 4233 l-412 -3 6 -158 c3 -86 31 -922 62 -1857 l56 -1700 185 3
c102 1 608 7 1125 13 517 6 941 12 941 13 2 1 21 961 20 962 -1 0 -363 -12
-806 -27 -443 -15 -807 -25 -810 -22 -3 2 -6 144 -8 314 l-3 309 691 0 690 0
0 353 0 354 -347 6 c-190 4 -437 7 -548 7 -185 0 -203 2 -206 18 -2 9 -3 144
-1 299 l3 282 557 -5 c306 -2 625 -6 708 -8 l152 -4 6 30 c3 17 6 210 6 429
l0 399 -827 -2 c-456 -2 -1014 -4 -1240 -5z"/>
<path d="M1110 3993 c-1 -17 233 -3248 235 -3251 4 -4 916 35 919 39 3 4 155
3203 152 3205 -7 6 -1306 12 -1306 7z"/>
<path d="M4075 3913 c-170 -16 -392 -72 -529 -135 -181 -83 -360 -225 -486
-383 -119 -151 -265 -423 -308 -575 -93 -326 -89 -840 9 -1139 51 -157 172
-381 289 -535 292 -386 691 -575 1275 -602 447 -21 858 128 1164 422 230 220
342 449 375 762 l4 42 -484 0 -484 0 0 -205 0 -205 -610 0 -609 0 -6 33 c-3
17 -4 399 -3 847 l3 815 602 34 c332 19 606 31 610 27 5 -4 9 -98 11 -208 l3
-200 122 6 c67 3 244 11 392 16 149 6 306 13 350 16 l81 5 -7 77 c-11 124 -43
225 -108 337 -221 383 -722 676 -1271 744 -79 10 -295 12 -385 4z"/>
</g>
</svg>
