<?xml version="1.0" standalone="no"?>
<!DOCTYPE svg PUBLIC "-//W3C//DTD SVG 20010904//EN"
 "http://www.w3.org/TR/2001/REC-SVG-20010904/DTD/svg10.dtd">
<svg version="1.0" xmlns="http://www.w3.org/2000/svg"
 width="96.000000pt" height="96.000000pt" viewBox="0 0 96.000000 96.000000"
 preserveAspectRatio="xMidYMid meet">

<g transform="translate(0.000000,96.000000) scale(0.100000,-0.100000)"
fill="#000000" stroke="none">
<path d="M400 904 c-77 -33 -118 -94 -130 -190 -6 -45 -18 -79 -44 -121 -54
-88 -67 -136 -73 -264 l-6 -116 -46 -20 c-49 -20 -81 -65 -81 -112 0 -20 5
-21 118 -21 85 0 123 4 138 14 17 12 27 12 74 0 70 -18 190 -18 259 1 47 12
57 12 75 -1 15 -10 52 -14 138 -14 113 0 118 1 118 21 0 47 -32 92 -81 112
l-46 20 -6 116 c-6 128 -19 176 -73 264 -26 42 -38 76 -44 121 -9 71 -26 109
-67 148 -58 56 -151 73 -223 42z m177 -52 c24 -17 29 -27 26 -47 -4 -20 0 -27
21 -35 20 -7 26 -16 26 -40 0 -30 -1 -31 -22 -16 -12 9 -30 16 -40 16 -28 0
-21 -27 10 -42 22 -11 27 -20 27 -48 l0 -35 -45 3 c-25 2 -70 3 -100 3 -30 0
-75 -1 -100 -3 l-45 -3 0 35 c0 28 5 37 28 48 30 15 37 42 9 42 -10 0 -28 -7
-40 -16 -21 -15 -22 -14 -22 13 0 38 10 51 40 49 28 -1 41 31 19 45 -16 10 -7
21 36 44 42 22 132 16 172 -13z m-259 -275 c12 -18 22 -39 22 -46 0 -6 7 -44
16 -82 14 -62 18 -70 37 -67 19 3 25 16 42 95 31 143 62 150 85 21 17 -97 26
-118 49 -118 20 0 29 29 47 137 5 32 43 93 57 93 3 0 19 -21 35 -48 43 -65 62
-148 62 -263 0 -105 7 -121 63 -134 15 -4 37 -19 48 -34 l21 -26 -84 -3 c-45
-2 -92 -1 -104 2 -27 7 -44 46 -44 101 0 24 -5 47 -11 51 -20 12 -30 -20 -26
-78 4 -46 2 -58 -12 -64 -31 -13 -215 -17 -258 -5 l-41 11 4 58 c5 58 -5 90
-25 78 -6 -4 -11 -27 -11 -51 0 -55 -17 -94 -44 -101 -12 -3 -59 -4 -104 -2
l-84 3 21 26 c11 15 33 30 48 34 56 13 63 29 63 134 0 55 7 122 15 156 15 55
68 155 84 155 3 0 16 -15 29 -33z m88 -48 c-3 -17 -6 -39 -7 -48 -1 -26 -17
19 -18 52 -1 19 4 27 15 27 13 0 15 -7 10 -31z m174 17 c0 -7 -3 -29 -7 -47
-7 -33 -7 -33 -14 -9 -12 43 -10 70 6 70 8 0 15 -6 15 -14z"/>
<path d="M451 761 c-12 -8 -12 -12 -2 -25 8 -9 21 -16 31 -16 10 0 23 7 31 16
10 13 10 17 -2 25 -8 5 -21 9 -29 9 -8 0 -21 -4 -29 -9z"/>
</g>
</svg>
